<svg xmlns="http://www.w3.org/2000/svg" viewBox="0 0 1000 500" fill="none" stroke="currentColor" stroke-width="0.5">
  <!-- North America -->
  <path d="M150 120 L180 100 L220 95 L250 110 L280 105 L300 120 L290 140 L270 150 L250 145 L240 160 L220 170 L200 165 L180 180 L160 175 L150 190 L130 185 L120 200 L100 195 L90 210 L80 200 L95 180 L110 160 L130 140 Z" />
  <path d="M90 210 L100 230 L120 240 L140 235 L160 250 L180 245 L200 260 L190 280 L170 290 L150 285 L130 275 L110 265 L100 250 L85 235 Z" />
  
  <!-- South America -->
  <path d="M200 290 L220 285 L240 300 L250 320 L245 340 L260 360 L255 380 L240 400 L225 420 L210 435 L200 420 L195 400 L200 380 L190 360 L195 340 L185 320 L190 300 Z" />
  
  <!-- Europe -->
  <path d="M450 100 L470 95 L490 100 L510 95 L530 105 L520 120 L540 130 L530 145 L510 140 L490 150 L470 145 L450 155 L440 140 L455 125 L445 115 Z" />
  <path d="M420 130 L440 125 L435 145 L420 150 L410 140 Z" />
  
  <!-- Africa -->
  <path d="M450 180 L480 175 L510 185 L530 200 L540 230 L535 260 L520 290 L500 320 L480 340 L460 350 L440 340 L430 310 L440 280 L435 250 L450 220 L445 200 Z" />
  
  <!-- Asia -->
  <path d="M550 80 L590 75 L630 85 L670 80 L710 90 L750 85 L790 95 L820 110 L850 105 L880 120 L870 140 L840 150 L810 145 L780 160 L750 155 L720 170 L690 165 L660 180 L630 175 L600 185 L570 180 L550 165 L560 140 L545 120 L555 100 Z" />
  <path d="M600 185 L620 200 L650 210 L680 205 L710 220 L700 240 L670 250 L640 245 L610 255 L580 250 L560 235 L575 215 L590 200 Z" />
  <path d="M720 220 L750 230 L780 225 L800 240 L790 260 L760 270 L730 265 L710 250 Z" />
  
  <!-- Australia -->
  <path d="M780 340 L820 335 L860 345 L890 360 L885 390 L860 410 L830 415 L800 405 L780 385 L775 360 Z" />
  <path d="M890 420 L910 415 L920 430 L910 445 L890 440 Z" />
  
  <!-- Antarctica -->
  <path d="M200 470 L300 465 L400 470 L500 465 L600 470 L700 465 L800 470 L750 485 L650 480 L550 485 L450 480 L350 485 L250 480 Z" />
  
  <!-- Japan -->
  <path d="M870 160 L885 155 L895 170 L890 185 L875 190 L865 175 Z" />
  
  <!-- UK/Ireland -->
  <path d="M420 105 L435 100 L440 115 L430 125 L415 120 Z" />
  <path d="M405 110 L415 105 L418 118 L408 122 Z" />
  
  <!-- New Zealand -->
  <path d="M920 400 L935 395 L940 415 L930 425 L920 415 Z" />
  <path d="M925 430 L940 428 L942 445 L930 448 Z" />
  
  <!-- Indonesia -->
  <path d="M750 280 L780 275 L810 285 L800 300 L770 305 L745 295 Z" />
  <path d="M815 290 L840 285 L855 300 L845 315 L820 310 Z" />
  
  <!-- Madagascar -->
  <path d="M560 340 L575 335 L580 360 L570 380 L555 375 L550 355 Z" />
  
  <!-- Greenland -->
  <path d="M300 50 L340 45 L370 55 L365 80 L340 90 L310 85 L295 70 Z" />
  
  <!-- Iceland -->
  <path d="M390 70 L410 65 L415 80 L400 88 L385 82 Z" />
</svg>